<svg xmlns="http://www.w3.org/2000/svg" width="256" height="256" viewBox="0 0 256 256" role="img" aria-label="Placeholder enemy">
  <defs>
    <linearGradient id="enemyBody" x1="0" y1="0" x2="1" y2="1">
      <stop offset="0" stop-color="#fb7185"/>
      <stop offset="1" stop-color="#a78bfa"/>
    </linearGradient>
    <filter id="enemyGlow">
      <feGaussianBlur stdDeviation="4" result="blur"/>
      <feMerge>
        <feMergeNode in="blur"/>
        <feMergeNode in="SourceGraphic"/>
      </feMerge>
    </filter>
  </defs>
  <rect width="256" height="256" fill="none"/>
  <path d="M52 186 C48 115 90 62 132 62 C182 62 220 112 206 185 C176 165 146 160 126 190 C101 161 78 164 52 186 Z" fill="#111827" stroke="#ff60d6" stroke-width="8" stroke-linejoin="round" filter="url(#enemyGlow)"/>
  <circle cx="130" cy="139" r="58" fill="url(#enemyBody)" stroke="#111827" stroke-width="8"/>
  <path d="M88 95 L62 58 L112 82 Z" fill="#fb7185" stroke="#111827" stroke-width="7" stroke-linejoin="round"/>
  <path d="M168 84 L206 54 L184 104 Z" fill="#a78bfa" stroke="#111827" stroke-width="7" stroke-linejoin="round"/>
  <circle cx="108" cy="132" r="8" fill="#111827"/>
  <circle cx="152" cy="132" r="8" fill="#111827"/>
  <path d="M107 164 Q130 178 153 164" fill="none" stroke="#111827" stroke-width="7" stroke-linecap="round"/>
  <path d="M42 214 H214" stroke="#38e8ff" stroke-width="6" stroke-linecap="round" opacity="0.8"/>
</svg>
